PathFileType	3	(X/Y/Z)	D:\minhoCalibration\240510\subject1_KPNP\preferred\preferred12.trc
DataRate	CameraRate	NumFrames	NumMarkers	Units	OrigDataRate	OrigDataStartFrame	OrigNumFrames
200.0	200.0	12	10	mm	200.0	448	280	
Frame#	Time	Left_Ankle_Outer1			Left_Ankle_Inner1			Left_Knee_Outer1			Left_Knee_Inner1			Left_Wrist1			Right_Wrist1			Right_Knee_Inner1			Right_Knee_Outer1			Right_Ankle_Inner1			Right_Ankle_Outer1			
		X1	Y1	Z1	X2	Y2	Z2	X3	Y3	Z3	X4	Y4	Z4	X5	Y5	Z5	X6	Y6	Z6	X7	Y7	Z7	X8	Y8	Z8	X9	Y9	Z9	X10	Y10	Z10	
448	2.23	-507.71176	137.77499	-536.42401	-545.70483	145.08342	-494.54868	-335.52615	542.94269	-406.58929	-434.58231	522.99896	-357.51385	-360.68524	991.1394	-571.09265	-622.15747	1127.6475	-356.24298	-359.44141	821.45239	-65.080963	-448.93756	885.479	-18.7925	-613.47046	470.46011	63.263363	-683.34003	519.43915	136.01923
449	2.235	-508.13818	137.30959	-537.15015	-546.21802	144.53722	-494.75464	-334.44751	541.80316	-407.00049	-433.36844	521.96124	-357.57626	-359.58163	990.38544	-569.95465	-623.47034	1123.608	-355.86169	-366.75354	812.28149	-65.013123	-458.03366	873.48596	-19.465487	-619.56116	455.80444	48.293102	-691.40271	501.63232	121.28168
450	2.24	-508.91614	136.63403	-537.45081	-546.9021	143.93935	-494.95084	-333.54376	540.37463	-407.25241	-432.32098	520.64423	-357.49243	-359.08276	989.82727	-568.06586	-624.82928	1119.4298	-355.54169	-374.10413	803.10699	-65.473686	-467.30539	861.54193	-20.811266	-626.0849	440.64691	33.498436	-699.48126	484.03973	106.38718
451	2.245	-509.62537	135.93111	-537.68878	-548.15271	143.5071	-495.39151	-332.47275	539.02167	-407.40085	-431.16891	519.30817	-357.1799	-357.85181	989.25049	-566.70367	-626.19867	1115.0731	-355.30322	-381.68198	793.73553	-66.148392	-476.60684	849.45721	-22.875864	-632.06775	425.82202	18.590086	-707.05493	466.80087	91.272263
452	2.25	-510.40256	135.24619	-537.77838	-548.79895	142.84467	-495.42834	-331.46185	537.50867	-407.4252	-429.97601	517.89709	-356.67679	-356.69571	988.59375	-565.22815	-627.27673	1110.7039	-355.46548	-389.19687	784.28961	-67.22776	-486.0264	837.62683	-25.391331	-637.81018	411.96085	3.8372688	-714.23553	449.65134	75.693535
453	2.255	-511.42584	134.2748	-537.53076	-549.55243	142.46068	-495.31305	-330.32761	536.03271	-407.32919	-428.50653	516.48608	-356.25247	-355.46466	987.88916	-563.74677	-628.48529	1106.1853	-355.67291	-397.00873	774.54224	-68.596062	-495.5069	825.7597	-28.432716	-642.89996	398.42862	-10.825803	-721.2262	433.45068	60.868374
454	2.26	-511.95853	133.8037	-537.9223	-550.25781	141.91048	-495.09247	-329.37128	534.42944	-407.10785	-427.27008	515.02588	-355.4411	-354.29874	987.11011	-562.15216	-629.80902	1101.8994	-355.29059	-404.95074	764.65851	-70.335075	-504.92072	813.99854	-31.61842	-648.96558	384.49155	-26.276819	-727.84479	417.17746	45.133278
455	2.265	-512.59241	133.05013	-537.96539	-550.91425	141.23079	-495.29825	-328.49405	532.90283	-406.61911	-425.77554	513.57367	-355.11179	-352.90213	986.28235	-560.60004	-630.50934	1096.4957	-358.01035	-413.06735	754.52905	-72.455254	-514.39111	802.18469	-35.433514	-651.97058	372.42636	-42.683983	-734.45667	401.24597	29.828781
456	2.27	-513.03571	132.26178	-538.1626	-551.38599	140.47392	-495.26761	-327.70374	531.31238	-405.93839	-425.10342	512.05176	-353.78802	-351.7796	985.37787	-558.88208	-631.61829	1091.8147	-358.64783	-421.33456	744.15619	-74.843361	-523.53894	790.35254	-39.830296	-658.31659	358.97186	-56.594185	-740.47662	385.64807	14.214409
457	2.275	-513.43353	131.1445	-538.06268	-551.81238	139.67899	-495.6499	-326.97159	529.74261	-405.15106	-423.76822	510.3587	-352.91302	-350.44168	984.42255	-557.25549	-633.09357	1086.9918	-358.89709	-429.69113	733.5213	-77.701775	-532.84369	778.35443	-44.337841	-664.37732	345.45667	-71.675102	-746.48022	370.32004	-1.6058195
458	2.28	-513.48798	130.25172	-538.53412	-551.88904	138.80565	-496.0759	-326.47842	528.14642	-404.19705	-423.21454	508.97098	-352.40622	-349.2543	983.41022	-555.58905	-633.30457	1082.3152	-361.14899	-438.00256	722.79382	-80.971512	-541.99658	766.41718	-49.139286	-668.62067	333.52228	-87.42054	-752.79767	355.48895	-16.768147
459	2.285	-513.06641	129.4474	-539.45264	-551.90845	137.63327	-496.79318	-325.89224	526.5592	-403.18277	-423.68506	507.78223	-350.66867	-347.98962	982.40332	-553.81952	-634.91217	1077.748	-360.91248	-446.4502	711.86407	-84.516365	-551.25061	754.32104	-54.132614	-674.9458	319.64145	-100.99013	-758.19214	340.90076	-32.363274
